<mxfile host="Electron" agent="Mozilla/5.0 (Macintosh; Intel Mac OS X 10_15_7) AppleWebKit/537.36 (KHTML, like Gecko) draw.io/25.0.2 Chrome/128.0.6613.186 Electron/32.2.5 Safari/537.36" version="25.0.2">
  <diagram name="Page-1" id="13e1069c-82ec-6db2-03f1-153e76fe0fe0">
    <mxGraphModel dx="1665" dy="1619" grid="1" gridSize="10" guides="1" tooltips="1" connect="1" arrows="1" fold="1" page="1" pageScale="1" pageWidth="1100" pageHeight="850" background="none" math="0" shadow="0">
      <root>
        <mxCell id="0" />
        <mxCell id="1" parent="0" />
        <mxCell id="xTh24dGXF4Po0zzvf2Dg-1" value="backend" style="shape=umlLifeline;perimeter=lifelinePerimeter;whiteSpace=wrap;html=1;container=1;collapsible=0;recursiveResize=0;outlineConnect=0;rounded=1;shadow=0;comic=0;labelBackgroundColor=none;strokeWidth=1;fontFamily=Verdana;fontSize=12;align=center;" vertex="1" parent="1">
          <mxGeometry x="1671" y="105" width="100" height="1035" as="geometry" />
        </mxCell>
        <mxCell id="xTh24dGXF4Po0zzvf2Dg-2" value="" style="html=1;points=[];perimeter=orthogonalPerimeter;rounded=0;shadow=0;comic=0;labelBackgroundColor=none;strokeWidth=1;fontFamily=Verdana;fontSize=12;align=center;" vertex="1" parent="xTh24dGXF4Po0zzvf2Dg-1">
          <mxGeometry x="45" y="180" width="10" height="80" as="geometry" />
        </mxCell>
        <mxCell id="xTh24dGXF4Po0zzvf2Dg-54" value="" style="html=1;points=[];perimeter=orthogonalPerimeter;rounded=0;shadow=0;comic=0;labelBackgroundColor=none;strokeWidth=1;fontFamily=Verdana;fontSize=12;align=center;" vertex="1" parent="xTh24dGXF4Po0zzvf2Dg-1">
          <mxGeometry x="45" y="480" width="10" height="210" as="geometry" />
        </mxCell>
        <mxCell id="xTh24dGXF4Po0zzvf2Dg-60" value="decode state and retrieve&lt;br&gt;frontend callback url" style="html=1;verticalAlign=bottom;endArrow=block;labelBackgroundColor=none;fontFamily=Verdana;fontSize=12;elbow=vertical;edgeStyle=orthogonalEdgeStyle;curved=1;exitX=1.066;exitY=0.713;exitPerimeter=0;" edge="1" parent="xTh24dGXF4Po0zzvf2Dg-1">
          <mxGeometry x="0.2308" y="80" relative="1" as="geometry">
            <mxPoint x="61" y="545" as="sourcePoint" />
            <mxPoint x="55" y="584" as="targetPoint" />
            <Array as="points">
              <mxPoint x="110" y="545" />
              <mxPoint x="110" y="584" />
            </Array>
            <mxPoint x="79" y="-69" as="offset" />
          </mxGeometry>
        </mxCell>
        <mxCell id="xTh24dGXF4Po0zzvf2Dg-61" value="exchange code to &lt;br&gt;tokens and save them" style="html=1;verticalAlign=bottom;endArrow=block;labelBackgroundColor=none;fontFamily=Verdana;fontSize=12;elbow=vertical;edgeStyle=orthogonalEdgeStyle;curved=1;exitX=1.066;exitY=0.713;exitPerimeter=0;" edge="1" parent="xTh24dGXF4Po0zzvf2Dg-1">
          <mxGeometry x="0.2309" y="60" relative="1" as="geometry">
            <mxPoint x="61" y="615" as="sourcePoint" />
            <mxPoint x="55" y="654" as="targetPoint" />
            <Array as="points">
              <mxPoint x="110" y="615" />
              <mxPoint x="110" y="654" />
            </Array>
            <mxPoint x="59" y="-49" as="offset" />
          </mxGeometry>
        </mxCell>
        <mxCell id="xTh24dGXF4Po0zzvf2Dg-66" value="" style="html=1;points=[];perimeter=orthogonalPerimeter;rounded=0;shadow=0;comic=0;labelBackgroundColor=none;strokeWidth=1;fontFamily=Verdana;fontSize=12;align=center;" vertex="1" parent="xTh24dGXF4Po0zzvf2Dg-1">
          <mxGeometry x="45" y="795" width="10" height="210" as="geometry" />
        </mxCell>
        <mxCell id="xTh24dGXF4Po0zzvf2Dg-68" value="hash code_verifier&amp;nbsp;&lt;div&gt;and extract&amp;nbsp;tokens&lt;/div&gt;" style="html=1;verticalAlign=bottom;endArrow=block;labelBackgroundColor=none;fontFamily=Verdana;fontSize=12;elbow=vertical;edgeStyle=orthogonalEdgeStyle;curved=1;exitX=1.066;exitY=0.713;exitPerimeter=0;" edge="1" parent="xTh24dGXF4Po0zzvf2Dg-1">
          <mxGeometry x="0.2308" y="63" relative="1" as="geometry">
            <mxPoint x="61" y="845" as="sourcePoint" />
            <mxPoint x="55" y="884" as="targetPoint" />
            <Array as="points">
              <mxPoint x="110" y="845" />
              <mxPoint x="110" y="884" />
            </Array>
            <mxPoint x="59" y="-42" as="offset" />
          </mxGeometry>
        </mxCell>
        <mxCell id="xTh24dGXF4Po0zzvf2Dg-3" value="keycloak" style="shape=umlLifeline;perimeter=lifelinePerimeter;whiteSpace=wrap;html=1;container=1;collapsible=0;recursiveResize=0;outlineConnect=0;rounded=1;shadow=0;comic=0;labelBackgroundColor=none;strokeWidth=1;fontFamily=Verdana;fontSize=12;align=center;" vertex="1" parent="1">
          <mxGeometry x="1960" y="105" width="100" height="580" as="geometry" />
        </mxCell>
        <mxCell id="xTh24dGXF4Po0zzvf2Dg-4" value="" style="html=1;points=[];perimeter=orthogonalPerimeter;rounded=0;shadow=0;comic=0;labelBackgroundColor=none;strokeWidth=1;fontFamily=Verdana;fontSize=12;align=center;" vertex="1" parent="xTh24dGXF4Po0zzvf2Dg-3">
          <mxGeometry x="45" y="330" width="10" height="50" as="geometry" />
        </mxCell>
        <mxCell id="xTh24dGXF4Po0zzvf2Dg-52" value="" style="html=1;points=[];perimeter=orthogonalPerimeter;rounded=0;shadow=0;comic=0;labelBackgroundColor=none;strokeWidth=1;fontFamily=Verdana;fontSize=12;align=center;" vertex="1" parent="xTh24dGXF4Po0zzvf2Dg-3">
          <mxGeometry x="45" y="445" width="10" height="55" as="geometry" />
        </mxCell>
        <mxCell id="xTh24dGXF4Po0zzvf2Dg-5" value="oauth provider" style="shape=umlLifeline;perimeter=lifelinePerimeter;whiteSpace=wrap;html=1;container=1;collapsible=0;recursiveResize=0;outlineConnect=0;rounded=1;shadow=0;comic=0;labelBackgroundColor=none;strokeWidth=1;fontFamily=Verdana;fontSize=12;align=center;" vertex="1" parent="1">
          <mxGeometry x="2150" y="105" width="100" height="505" as="geometry" />
        </mxCell>
        <mxCell id="xTh24dGXF4Po0zzvf2Dg-16" value="" style="html=1;points=[];perimeter=orthogonalPerimeter;rounded=0;shadow=0;comic=0;labelBackgroundColor=none;strokeWidth=1;fontFamily=Verdana;fontSize=12;align=center;" vertex="1" parent="xTh24dGXF4Po0zzvf2Dg-5">
          <mxGeometry x="45" y="390" width="10" height="80" as="geometry" />
        </mxCell>
        <mxCell id="xTh24dGXF4Po0zzvf2Dg-9" value="frontend" style="shape=umlLifeline;perimeter=lifelinePerimeter;whiteSpace=wrap;html=1;container=1;collapsible=0;recursiveResize=0;outlineConnect=0;rounded=1;shadow=0;comic=0;labelBackgroundColor=none;strokeWidth=1;fontFamily=Verdana;fontSize=12;align=center;" vertex="1" parent="1">
          <mxGeometry x="1210" y="105" width="100" height="1135" as="geometry" />
        </mxCell>
        <mxCell id="xTh24dGXF4Po0zzvf2Dg-10" value="" style="html=1;points=[];perimeter=orthogonalPerimeter;rounded=0;shadow=0;comic=0;labelBackgroundColor=none;strokeWidth=1;fontFamily=Verdana;fontSize=12;align=center;" vertex="1" parent="xTh24dGXF4Po0zzvf2Dg-9">
          <mxGeometry x="45" y="100" width="10" height="950" as="geometry" />
        </mxCell>
        <mxCell id="xTh24dGXF4Po0zzvf2Dg-39" value="&lt;font style=&quot;font-size: 11px;&quot;&gt;Prepare a request with &quot;state&quot; query param.&amp;nbsp;&lt;/font&gt;&lt;div&gt;&lt;font style=&quot;font-size: 11px;&quot;&gt;The state is the base64 encoded JSON:&lt;/font&gt;&lt;div&gt;&lt;font style=&quot;font-size: 11px;&quot;&gt;{ &quot;callback_url&quot;: callbackURL, &quot;code_challenge&quot;: codeChallenge }&lt;/font&gt;&lt;/div&gt;&lt;div&gt;&lt;font style=&quot;font-size: 11px;&quot;&gt;&lt;br&gt;&lt;/font&gt;&lt;/div&gt;&lt;div&gt;&lt;font style=&quot;font-size: 11px;&quot;&gt;Store in the local storage original&amp;nbsp;code_verifier.&lt;/font&gt;&lt;/div&gt;&lt;/div&gt;" style="html=1;verticalAlign=bottom;endArrow=block;labelBackgroundColor=none;fontFamily=Verdana;fontSize=12;elbow=vertical;edgeStyle=orthogonalEdgeStyle;curved=1;exitX=1.066;exitY=0.713;exitPerimeter=0;align=left;" edge="1" parent="xTh24dGXF4Po0zzvf2Dg-9">
          <mxGeometry x="-0.3147" y="-16" relative="1" as="geometry">
            <mxPoint x="61" y="111" as="sourcePoint" />
            <mxPoint x="55" y="150" as="targetPoint" />
            <Array as="points">
              <mxPoint x="110" y="111" />
              <mxPoint x="110" y="150" />
            </Array>
            <mxPoint x="16" y="-16" as="offset" />
          </mxGeometry>
        </mxCell>
        <mxCell id="xTh24dGXF4Po0zzvf2Dg-40" value="&lt;font style=&quot;font-size: 11px;&quot;&gt;redirect to the backend url&amp;nbsp;&lt;br&gt;http://backend_url/auth/login?state=${state}&lt;/font&gt;" style="html=1;verticalAlign=bottom;endArrow=block;labelBackgroundColor=none;fontFamily=Verdana;fontSize=12;edgeStyle=elbowEdgeStyle;elbow=vertical;align=left;entryX=-0.005;entryY=0.189;entryDx=0;entryDy=0;entryPerimeter=0;" edge="1" parent="xTh24dGXF4Po0zzvf2Dg-9" target="xTh24dGXF4Po0zzvf2Dg-2">
          <mxGeometry x="-0.6451" y="10" relative="1" as="geometry">
            <mxPoint x="55" y="196" as="sourcePoint" />
            <Array as="points">
              <mxPoint x="590" y="195" />
            </Array>
            <mxPoint x="490" y="195" as="targetPoint" />
            <mxPoint as="offset" />
          </mxGeometry>
        </mxCell>
        <mxCell id="xTh24dGXF4Po0zzvf2Dg-17" value="&lt;font style=&quot;font-size: 11px;&quot;&gt;go to the realm&#39;s login page&lt;/font&gt;" style="html=1;verticalAlign=bottom;endArrow=block;entryX=-0.004;entryY=0.302;labelBackgroundColor=none;fontFamily=Verdana;fontSize=12;entryDx=0;entryDy=0;entryPerimeter=0;" edge="1" parent="1">
          <mxGeometry x="0.0005" relative="1" as="geometry">
            <mxPoint x="1265" y="440.4000000000001" as="sourcePoint" />
            <mxPoint x="2004.96" y="440.1" as="targetPoint" />
            <mxPoint as="offset" />
          </mxGeometry>
        </mxCell>
        <mxCell id="xTh24dGXF4Po0zzvf2Dg-38" value="user authentication" style="text;html=1;align=center;verticalAlign=middle;resizable=0;points=[];autosize=1;strokeColor=none;fillColor=none;" vertex="1" parent="1">
          <mxGeometry x="1210" y="20" width="120" height="30" as="geometry" />
        </mxCell>
        <mxCell id="xTh24dGXF4Po0zzvf2Dg-42" value="" style="endArrow=classic;html=1;rounded=0;entryX=1.025;entryY=0.441;entryDx=0;entryDy=0;entryPerimeter=0;exitX=-0.046;exitY=0.952;exitDx=0;exitDy=0;exitPerimeter=0;dashed=1;" edge="1" parent="1">
          <mxGeometry width="50" height="50" relative="1" as="geometry">
            <mxPoint x="1715.54" y="349.24" as="sourcePoint" />
            <mxPoint x="1265.25" y="349.03999999999996" as="targetPoint" />
          </mxGeometry>
        </mxCell>
        <mxCell id="xTh24dGXF4Po0zzvf2Dg-59" value="&lt;span style=&quot;font-family: Verdana; background-color: rgb(251, 251, 251);&quot;&gt;redirect to the keycloak login page http://keycloak_url&lt;/span&gt;" style="edgeLabel;html=1;align=center;verticalAlign=middle;resizable=0;points=[];" vertex="1" connectable="0" parent="xTh24dGXF4Po0zzvf2Dg-42">
          <mxGeometry x="-0.1261" y="1" relative="1" as="geometry">
            <mxPoint x="-29" y="-10" as="offset" />
          </mxGeometry>
        </mxCell>
        <mxCell id="xTh24dGXF4Po0zzvf2Dg-46" value="" style="endArrow=classic;html=1;rounded=0;exitX=0.003;exitY=0.793;exitDx=0;exitDy=0;exitPerimeter=0;entryX=1.06;entryY=0.165;entryDx=0;entryDy=0;entryPerimeter=0;" edge="1" parent="1" source="xTh24dGXF4Po0zzvf2Dg-16" target="xTh24dGXF4Po0zzvf2Dg-52">
          <mxGeometry width="50" height="50" relative="1" as="geometry">
            <mxPoint x="2143.12" y="538.9949999999999" as="sourcePoint" />
            <mxPoint x="2020" y="539" as="targetPoint" />
          </mxGeometry>
        </mxCell>
        <mxCell id="xTh24dGXF4Po0zzvf2Dg-53" value="&lt;font face=&quot;Verdana&quot;&gt;send successful&lt;/font&gt;&lt;div&gt;&lt;font face=&quot;Verdana&quot;&gt;&amp;nbsp;authentication information&lt;/font&gt;&lt;/div&gt;" style="edgeLabel;html=1;align=center;verticalAlign=middle;resizable=0;points=[];" vertex="1" connectable="0" parent="xTh24dGXF4Po0zzvf2Dg-46">
          <mxGeometry x="-0.0377" y="-1" relative="1" as="geometry">
            <mxPoint x="-7" y="22" as="offset" />
          </mxGeometry>
        </mxCell>
        <mxCell id="xTh24dGXF4Po0zzvf2Dg-48" value="" style="endArrow=classic;html=1;rounded=0;entryX=0.996;entryY=0.627;entryDx=0;entryDy=0;entryPerimeter=0;exitX=-0.047;exitY=0.736;exitDx=0;exitDy=0;exitPerimeter=0;dashed=1;" edge="1" parent="1">
          <mxGeometry width="50" height="50" relative="1" as="geometry">
            <mxPoint x="2004.5300000000002" y="479.79999999999995" as="sourcePoint" />
            <mxPoint x="1264.96" y="479.8800000000001" as="targetPoint" />
          </mxGeometry>
        </mxCell>
        <mxCell id="xTh24dGXF4Po0zzvf2Dg-49" value="&lt;font face=&quot;Verdana&quot;&gt;&lt;span style=&quot;background-color: rgb(251, 251, 251);&quot;&gt;redirect to the oauth&amp;nbsp;&lt;/span&gt;&lt;span style=&quot;background-color: rgb(251, 251, 251);&quot;&gt;provider login page&lt;/span&gt;&lt;/font&gt;" style="edgeLabel;html=1;align=center;verticalAlign=middle;resizable=0;points=[];" vertex="1" connectable="0" parent="xTh24dGXF4Po0zzvf2Dg-48">
          <mxGeometry x="0.1833" y="-1" relative="1" as="geometry">
            <mxPoint x="40" y="-11" as="offset" />
          </mxGeometry>
        </mxCell>
        <mxCell id="xTh24dGXF4Po0zzvf2Dg-50" value="" style="endArrow=classic;html=1;rounded=0;exitX=1.091;exitY=0.321;exitDx=0;exitDy=0;exitPerimeter=0;entryX=-0.037;entryY=0.185;entryDx=0;entryDy=0;entryPerimeter=0;" edge="1" parent="1" source="xTh24dGXF4Po0zzvf2Dg-10" target="xTh24dGXF4Po0zzvf2Dg-16">
          <mxGeometry width="50" height="50" relative="1" as="geometry">
            <mxPoint x="1266.1400000000003" y="510.24000000000024" as="sourcePoint" />
            <mxPoint x="2104.4300000000003" y="509.74" as="targetPoint" />
          </mxGeometry>
        </mxCell>
        <mxCell id="xTh24dGXF4Po0zzvf2Dg-51" value="&lt;font face=&quot;Verdana&quot;&gt;send authentication request to oauth provider&lt;/font&gt;" style="edgeLabel;html=1;align=center;verticalAlign=middle;resizable=0;points=[];" vertex="1" connectable="0" parent="xTh24dGXF4Po0zzvf2Dg-50">
          <mxGeometry x="-0.0001" y="1" relative="1" as="geometry">
            <mxPoint x="-84" y="-9" as="offset" />
          </mxGeometry>
        </mxCell>
        <mxCell id="xTh24dGXF4Po0zzvf2Dg-55" value="" style="endArrow=classic;html=1;rounded=0;exitX=-0.034;exitY=0.724;exitDx=0;exitDy=0;exitPerimeter=0;entryX=1.009;entryY=0.024;entryDx=0;entryDy=0;entryPerimeter=0;" edge="1" parent="1" source="xTh24dGXF4Po0zzvf2Dg-52" target="xTh24dGXF4Po0zzvf2Dg-54">
          <mxGeometry width="50" height="50" relative="1" as="geometry">
            <mxPoint x="1968" y="590" as="sourcePoint" />
            <mxPoint x="1726" y="594" as="targetPoint" />
          </mxGeometry>
        </mxCell>
        <mxCell id="xTh24dGXF4Po0zzvf2Dg-56" value="&lt;font face=&quot;Verdana&quot;&gt;send a code and state params to&lt;/font&gt;&lt;div&gt;&lt;font face=&quot;Verdana&quot;&gt;&lt;font style=&quot;&quot;&gt;&lt;span style=&quot;background-color: rgb(251, 251, 251);&quot;&gt;http://backend_url/auth/callback?state=${state}&amp;amp;code=code&lt;/span&gt;&lt;/font&gt;&lt;/font&gt;&lt;/div&gt;" style="edgeLabel;html=1;align=left;verticalAlign=middle;resizable=0;points=[];" vertex="1" connectable="0" parent="xTh24dGXF4Po0zzvf2Dg-55">
          <mxGeometry x="-0.0377" y="-1" relative="1" as="geometry">
            <mxPoint x="-131" y="29" as="offset" />
          </mxGeometry>
        </mxCell>
        <mxCell id="xTh24dGXF4Po0zzvf2Dg-63" value="" style="endArrow=classic;html=1;rounded=0;exitX=-0.105;exitY=0.976;exitDx=0;exitDy=0;exitPerimeter=0;entryX=0.963;entryY=0.615;entryDx=0;entryDy=0;entryPerimeter=0;" edge="1" parent="1" source="xTh24dGXF4Po0zzvf2Dg-54" target="xTh24dGXF4Po0zzvf2Dg-10">
          <mxGeometry width="50" height="50" relative="1" as="geometry">
            <mxPoint x="1699" y="790" as="sourcePoint" />
            <mxPoint x="1420" y="790" as="targetPoint" />
          </mxGeometry>
        </mxCell>
        <mxCell id="xTh24dGXF4Po0zzvf2Dg-64" value="&lt;font face=&quot;Verdana&quot;&gt;redirect to the frontend callback url&amp;nbsp;&lt;/font&gt;&lt;span style=&quot;background-color: rgb(251, 251, 251); font-family: Verdana;&quot;&gt;http://frontend_url/callback&lt;/span&gt;" style="edgeLabel;html=1;align=left;verticalAlign=middle;resizable=0;points=[];" vertex="1" connectable="0" parent="xTh24dGXF4Po0zzvf2Dg-63">
          <mxGeometry x="-0.0377" y="-1" relative="1" as="geometry">
            <mxPoint x="-208" y="-19" as="offset" />
          </mxGeometry>
        </mxCell>
        <mxCell id="xTh24dGXF4Po0zzvf2Dg-65" value="&lt;div&gt;&lt;div&gt;&lt;font style=&quot;font-size: 11px;&quot;&gt;retrieve the code_verifier from local storage&lt;/font&gt;&lt;/div&gt;&lt;/div&gt;" style="html=1;verticalAlign=bottom;endArrow=block;labelBackgroundColor=none;fontFamily=Verdana;fontSize=12;elbow=vertical;edgeStyle=orthogonalEdgeStyle;curved=1;exitX=1.066;exitY=0.713;exitPerimeter=0;align=left;" edge="1" parent="1">
          <mxGeometry x="-0.035" y="10" relative="1" as="geometry">
            <mxPoint x="1271" y="840" as="sourcePoint" />
            <mxPoint x="1265" y="879" as="targetPoint" />
            <Array as="points">
              <mxPoint x="1320" y="840" />
              <mxPoint x="1320" y="879" />
            </Array>
            <mxPoint as="offset" />
          </mxGeometry>
        </mxCell>
        <mxCell id="xTh24dGXF4Po0zzvf2Dg-67" value="&lt;font style=&quot;&quot;&gt;&lt;span style=&quot;font-size: 11px;&quot;&gt;send the POST request with payload &lt;/span&gt;&lt;br&gt;&lt;span style=&quot;font-size: 11px;&quot;&gt;{&quot;code_verifier&quot;: code_verifier}&lt;/span&gt;&lt;br&gt;&lt;br&gt;&lt;span style=&quot;font-size: 11px;&quot;&gt;to the backend url&amp;nbsp;&lt;/span&gt;&lt;br&gt;&lt;span style=&quot;font-size: 11px;&quot;&gt;http://backend_url/auth/token&lt;/span&gt;&lt;/font&gt;" style="html=1;verticalAlign=bottom;endArrow=block;labelBackgroundColor=none;fontFamily=Verdana;fontSize=12;edgeStyle=elbowEdgeStyle;elbow=vertical;align=left;entryX=-0.005;entryY=0.189;entryDx=0;entryDy=0;entryPerimeter=0;" edge="1" parent="1">
          <mxGeometry x="-0.7522" y="-80" relative="1" as="geometry">
            <mxPoint x="1265" y="921" as="sourcePoint" />
            <Array as="points">
              <mxPoint x="1800" y="920" />
            </Array>
            <mxPoint x="1716" y="920" as="targetPoint" />
            <mxPoint as="offset" />
          </mxGeometry>
        </mxCell>
        <mxCell id="xTh24dGXF4Po0zzvf2Dg-69" value="" style="endArrow=classic;html=1;rounded=0;entryX=1.01;entryY=0.921;entryDx=0;entryDy=0;entryPerimeter=0;exitX=-0.009;exitY=0.857;exitDx=0;exitDy=0;exitPerimeter=0;dashed=1;" edge="1" parent="1" source="xTh24dGXF4Po0zzvf2Dg-66" target="xTh24dGXF4Po0zzvf2Dg-10">
          <mxGeometry width="50" height="50" relative="1" as="geometry">
            <mxPoint x="1690" y="1080" as="sourcePoint" />
            <mxPoint x="1270" y="1080" as="targetPoint" />
          </mxGeometry>
        </mxCell>
        <mxCell id="xTh24dGXF4Po0zzvf2Dg-70" value="&lt;font face=&quot;Verdana&quot;&gt;return access_token, refresh_token&lt;/font&gt;" style="edgeLabel;html=1;align=left;verticalAlign=middle;resizable=0;points=[];" vertex="1" connectable="0" parent="xTh24dGXF4Po0zzvf2Dg-69">
          <mxGeometry x="-0.0377" y="-1" relative="1" as="geometry">
            <mxPoint x="-208" y="-19" as="offset" />
          </mxGeometry>
        </mxCell>
      </root>
    </mxGraphModel>
  </diagram>
</mxfile>
